:SAMPLES-PER-SECOND 30
:FULLY-SPECIFIED
:DEGREES
403
root  -23.563 33.7076 15.3555 -160.348 -24.4343 178.316
RightUpLeg  -37.4049 -5.86919 4.43422
RightLeg  32.6293 11.9959 6.54902
RightFoot  -3.31018 -0.0363323 -0.795678
RightToes  -17.7857 -0.0694621 -0.158785
Spine  3.41898 -0.697731 0.916449
Spine1  6.83781 -1.77457 2.79363
HEad  -78.7664 -2.32213 11.731
LeftShoulder1  -1.94126e-019 -3.10601e-018 -2.51263e-017
LeftArm  -19.3396 34.4489 -78.8909
LeftForeArm  31.827 -41.8188 -7.91203
LeftHand  -0.697061 -4.70393 8.3028
RightShoulder  -4.96962e-017 0 -2.36833e-017
RightArm  -40.6086 -30.3242 68.7144
RightForeArm  54.0729 8.63828 1.44783
RightHand  -0.110086 -4.59141 -14.0029
LeftUpLeg  -36.4267 12.8395 -2.21938
LeftLeg  44.9827 17.1755 14.5367
LeftFoot  -1.99346 -0.0158365 -0.748651
LeftToes  -20.2988 1.70063e-006 7.6642e-008
404
root  -23.8216 33.4913 15.4515 -159.008 -21.6145 177.603
RightUpLeg  -41.0279 -7.77363 4.27045
RightLeg  37.306 14.7969 9.62734
RightFoot  -3.7462 -0.0531328 -1.18736
RightToes  -19.4553 -0.078443 -0.172428
Spine  3.5826 -0.598014 0.689051
Spine1  7.17066 -1.50547 2.30745
HEad  -80.0516 -3.04858 10.4885
LeftShoulder1  -1.94126e-019 -3.10601e-018 -2.51263e-017
LeftArm  -19.7695 35.2199 -79.4609
LeftForeArm  31.8293 -39.5289 -7.21669
LeftHand  -0.498749 -4.42437 6.1836
RightShoulder  -4.96962e-017 0 -2.36833e-017
RightArm  -41.7803 -30.4015 68.3027
RightForeArm  53.7024 8.06926 1.37982
RightHand  -0.0563123 -5.05794 -14.5723
LeftUpLeg  -38.816 9.47822 -2.34688
LeftLeg  42.561 16.9066 13.1898
LeftFoot  -4.91636 -0.0850289 -1.81888
LeftToes  -16.6881 1.70063e-006 7.6642e-008
405
root  -24.1105 33.1645 15.608 -157.411 -19.2343 176.781
RightUpLeg  -45.9166 -11.6327 5.14887
RightLeg  43.2197 16.3776 13.0846
RightFoot  -3.88997 -0.0647511 -1.49046
RightToes  -23.725 -0.103182 -0.206076
Spine  3.68044 -0.493769 0.492829
Spine1  7.36972 -1.23555 1.88273
HEad  -81.8926 -4.16261 9.10807
LeftShoulder1  -1.94126e-019 -3.10601e-018 -2.51263e-017
LeftArm  -18.7196 35.5329 -79.4939
LeftForeArm  30.1075 -37.8573 -6.84027
LeftHand  -0.561477 -4.3838 6.9505
RightShoulder  -4.96962e-017 0 -2.36833e-017
RightArm  -41.031 -30.2881 68.0873
RightForeArm  53.1613 8.1379 1.39145
RightHand  -0.00690014 -5.46227 -14.4165
LeftUpLeg  -41.5567 5.32796 -1.75957
LeftLeg  40.1166 16.2486 11.6643
LeftFoot  -6.15072 -0.12202 -2.10926
LeftToes  -18.9275 1.70063e-006 7.6642e-008
406
root  -24.3816 32.6535 15.7522 -156.185 -17.2201 176.749
RightUpLeg  -51.4258 -16.7295 8.62598
RightLeg  48.8248 14.732 14.306
RightFoot  -4.76115 -0.0916116 -1.78469
RightToes  -26.5022 -0.120591 -0.226935
Spine  3.81872 -0.216364 0.538558
Spine1  7.65031 -0.684084 1.98831
HEad  -83.9808 -5.52116 7.99145
LeftShoulder1  -1.94126e-019 -3.10601e-018 -2.51263e-017
LeftArm  -17.8624 34.5828 -79.6489
LeftForeArm  30.4866 -34.7878 -5.98792
LeftHand  -0.483122 -4.58193 5.91344
RightShoulder  -4.96962e-017 0 -2.36833e-017
RightArm  -39.5032 -29.805 67.8824
RightForeArm  52.6553 8.38794 1.42267
RightHand  -0.0428403 -5.16008 -13.7109
LeftUpLeg  -45.5931 3.70674 -1.36076
LeftLeg  43.7969 14.1345 11.619
LeftFoot  -5.36664 -0.0851697 -1.65554
LeftToes  -15.6081 1.70063e-006 7.6642e-008
407
root  -24.6215 31.9821 15.7971 -155.653 -15.0426 177.025
RightUpLeg  -56.0524 -20.5779 12.8558
RightLeg  53.1464 11.1684 12.7143
RightFoot  -7.74319 -0.188282 -2.33991
RightToes  -19.9139 -0.0809792 -0.176129
Spine  4.09694 0.270105 0.58775
Spine1  8.22056 0.261858 2.13039
HEad  -85.3932 -6.65276 6.68122
LeftShoulder1  -1.94126e-019 -3.10601e-018 -2.51263e-017
LeftArm  -16.111 32.3674 -79.3548
LeftForeArm  30.6404 -30.8381 -4.99873
LeftHand  -0.671613 -5.1618 7.68869
RightShoulder  -4.96962e-017 0 -2.36833e-017
RightArm  -37.6606 -28.6003 67.8568
RightForeArm  52.6888 8.46339 1.4293
RightHand  -0.111975 -4.499 -12.7085
LeftUpLeg  -49.1571 4.54102 -1.61399
LeftLeg  50.7492 13.0109 13.5952
LeftFoot  -8.62519 -0.224508 -2.81488
LeftToes  -19.1628 1.70063e-006 7.6642e-008
408
root  -24.8419 31.143 15.8443 -155.345 -13.0677 177.09
RightUpLeg  -59.9918 -22.367 15.7897
RightLeg  57.5375 8.17006 10.9405
RightFoot  -12.337 -0.369177 -2.95345
RightToes  -7.3802 -0.0228056 -0.0684573
Spine  4.31374 0.615275 0.458295
Spine1  8.67375 0.953623 1.88078
HEad  -86.3321 -6.76823 6.46349
LeftShoulder1  -1.94126e-019 -3.10601e-018 -2.51263e-017
LeftArm  -14.5106 28.7193 -78.6147
LeftForeArm  30.8478 -24.6609 -3.65684
LeftHand  -0.475418 -4.80729 5.70808
RightShoulder  -4.96962e-017 0 -2.36833e-017
RightArm  -36.928 -25.5466 67.9648
RightForeArm  55.1327 7.04732 1.20732
RightHand  -0.223331 -3.21559 -11.3522
LeftUpLeg  -52.0629 6.93848 -2.81906
LeftLeg  56.239 11.1095 14.1135
LeftFoot  -12.4068 -0.439596 -3.8811
LeftToes  -19.1189 1.70063e-006 7.6642e-008
409
root  -25.0341 30.2166 15.8929 -155.302 -11.1856 177.245
RightUpLeg  -62.8981 -20.8467 15.8744
RightLeg  62.692 6.22317 10.1304
RightFoot  -15.9267 -0.525727 -3.28524
RightToes  -1.74229 -0.00458551 -0.0164171
Spine  4.5522 0.719964 0.26352
Spine1  9.15376 1.22556 1.40615
HEad  -87.4597 -5.29515 6.81926
LeftShoulder1  -1.94126e-019 -3.10601e-018 -2.51263e-017
LeftArm  -13.3656 23.2403 -77.2907
LeftForeArm  34.1594 -15.6949 -2.44831
LeftHand  -0.655869 -5.73884 7.15655
RightShoulder  -4.96962e-017 0 -2.36833e-017
RightArm  -36.9627 -19.5843 67.9539
RightForeArm  59.5781 3.63315 0.594404
RightHand  -0.30954 -1.61366 -9.36351
LeftUpLeg  -55.0901 9.47591 -4.10639
LeftLeg  62.0178 9.30688 14.68
LeftFoot  -16.4163 -0.739298 -4.9603
LeftToes  -15.0303 1.70063e-006 7.6642e-008
410
root  -25.226 29.2989 15.9326 -155.598 -10.3768 177.343
RightUpLeg  -65.3676 -19.0188 14.8117
RightLeg  68.2605 4.79406 9.82608
RightFoot  -18.1484 -0.623436 -3.42499
RightToes  -4.08814 -0.0115438 -0.0382863
Spine  4.72881 0.547084 0.199546
Spine1  9.47764 1.02686 1.04469
HEad  -88.3422 -3.65526 7.48199
LeftShoulder1  -1.94126e-019 -3.10601e-018 -2.51263e-017
LeftArm  -14.7201 15.1114 -75.714
LeftForeArm  43.0978 -5.62534 -0.969078
LeftHand  -0.39209 -6.93332 4.04202
RightShoulder  -4.96962e-017 0 -2.36833e-017
RightArm  -34.5932 -12.1782 67.5087
RightForeArm  59.399 0.677155 0.083058
RightHand  -0.109417 -1.75474 -3.2382
LeftUpLeg  -57.7215 9.99683 -4.52683
LeftLeg  67.821 7.89506 15.8045
LeftFoot  -19.5602 -1.06127 -5.98952
LeftToes  -12.7845 1.70063e-006 7.6642e-008
411
root  -25.4054 28.4455 15.8651 -156.34 -10.3808 177.504
RightUpLeg  -66.9062 -18.6682 14.4548
RightLeg  72.9205 3.67591 9.39318
RightFoot  -20.9076 -0.753088 -3.59791
RightToes  -2.53554 -0.012817 -0.0238437
Spine  4.94022 0.501889 0.410474
Spine1  9.78108 1.1592 1.07413
HEad  -88.7405 -2.86544 8.26838
LeftShoulder1  -1.94126e-019 -3.10601e-018 -2.51263e-017
LeftArm  -15.3097 5.21117 -73.1987
LeftForeArm  45.8859 2.17258 0.388855
LeftHand  -0.0115769 -6.02067 0.44986
RightShoulder  -4.96962e-017 0 -2.36833e-017
RightArm  -33.6876 -4.16634 66.3527
RightForeArm  62.4589 0.770853 0.10112
RightHand  0.167764 -2.10839 6.45222
LeftUpLeg  -59.2193 9.51444 -4.35984
LeftLeg  72.6546 6.76124 17.0072
LeftFoot  -22.6099 -1.4676 -7.17014
LeftToes  -11.0511 1.70063e-006 7.6642e-008
412
root  -25.5773 27.7184 15.6597 -157.948 -10.008 177.597
RightUpLeg  -66.8143 -18.3162 13.5593
RightLeg  76.8303 2.83655 8.99719
RightFoot  -23.0697 -0.841637 -3.6357
RightToes  -3.53891 -0.0118694 -0.0331919
Spine  5.24817 0.767333 0.384861
Spine1  10.1695 1.94175 0.702893
HEad  -88.9848 -2.81598 8.92565
LeftShoulder1  -1.94126e-019 -3.10601e-018 -2.51263e-017
LeftArm  -15.7875 -4.09519 -69.2645
LeftForeArm  41.7567 2.26593 0.396181
LeftHand  0.215316 -2.26602 -3.08779
RightShoulder  -4.96962e-017 0 -2.36833e-017
RightArm  -30.9899 5.34953 64.5495
RightForeArm  61.7904 0.491805 0.0551598
RightHand  0.209155 -1.40883 6.39769
LeftUpLeg  -59.1721 9.62133 -4.21596
LeftLeg  76.6029 5.73355 17.9866
LeftFoot  -24.8978 -1.83194 -8.12303
LeftToes  -9.10711 1.70063e-006 7.6642e-008
413
root  -25.7042 27.2404 15.385 -159.429 -9.31035 178.119
RightUpLeg  -66.0355 -17.3713 12.9282
RightLeg  79.4116 2.28514 8.55436
RightFoot  -24.3499 -0.863796 -3.51139
RightToes  -4.36724 -0.0124311 -0.0408688
Spine  5.37266 1.27625 0.352257
Spine1  10.0841 3.28428 0.312295
HEad  -89.1637 -2.96228 9.06826
LeftShoulder1  -1.94126e-019 -3.10601e-018 -2.51263e-017
LeftArm  -22.1535 -14.3375 -64.5557
LeftForeArm  48.7487 2.10197 0.37703
LeftHand  0.201657 -3.26487 -2.4714
RightShoulder  -4.96962e-017 0 -2.36833e-017
RightArm  -31.5465 15.2958 61.6003
RightForeArm  60.0042 0.993615 0.140784
RightHand  0.00213042 -0.782198 0.162658
LeftUpLeg  -58.4887 10.8482 -3.79729
LeftLeg  79.1835 4.83122 18.0094
LeftFoot  -26.3542 -2.02065 -8.45366
LeftToes  -10.2641 1.70063e-006 7.6642e-008
414
root  -25.8529 27.0428 15.0126 -160.999 -9.07855 178.375
RightUpLeg  -64.1936 -17.4104 12.1885
RightLeg  80.5763 2.09415 8.52281
RightFoot  -25.3198 -0.899151 -3.50888
RightToes  -5.82064 -0.0172544 -0.054245
Spine  5.38079 1.60476 0.25773
Spine1  9.72451 4.26566 -0.0807032
HEad  -89.407 -3.04867 8.53703
LeftShoulder1  -1.94126e-019 -3.10601e-018 -2.51263e-017
LeftArm  -24.5984 -24.7734 -59.4898
LeftForeArm  46.7621 2.06949 0.371261
LeftHand  -0.0465297 -6.67772 0.795291
RightShoulder  -4.96962e-017 0 -2.36833e-017
RightArm  -38.8939 25.1374 57.1628
RightForeArm  63.1165 3.0593 0.487764
RightHand  -0.275212 0.00813551 -5.95498
LeftUpLeg  -56.6297 12.1276 -3.54214
LeftLeg  80.0863 4.32152 17.2728
LeftFoot  -27.5287 -2.09411 -8.37223
LeftToes  -10.5904 1.70063e-006 7.6642e-008
415
root  -25.999 27.2077 14.5755 -162.427 -9.18364 178.573
RightUpLeg  -61.4078 -17.9347 11.4793
RightLeg  79.906 2.19904 8.52252
RightFoot  -25.6466 -0.90201 -3.46771
RightToes  -6.69403 -0.0203943 -0.0622228
Spine  5.16351 1.60553 0.0123513
Spine1  9.00235 4.34746 -0.428524
HEad  -90.0544 -3.22449 7.86106
LeftShoulder1  -1.94126e-019 -3.10601e-018 -2.51263e-017
LeftArm  -23.5982 -33.2506 -53.5244
LeftForeArm  38.649 -6.66072 -1.16073
LeftHand  -0.293444 -6.32059 3.24579
RightShoulder  -4.96962e-017 0 -2.36833e-017
RightArm  -42.9808 34.8204 51.2095
RightForeArm  65.1025 7.04393 1.18234
RightHand  -0.390331 0.966053 -7.24703
LeftUpLeg  -53.8833 13.104 -3.18377
LeftLeg  79.1738 4.3785 16.4066
LeftFoot  -27.9059 -2.047 -8.06404
LeftToes  -10.8937 1.70063e-006 7.6642e-008
416
root  -26.1021 27.8123 14.1341 -163.391 -9.53467 178.807
RightUpLeg  -57.8827 -18.5496 10.9541
RightLeg  76.8819 2.63563 8.3758
RightFoot  -24.9326 -0.842902 -3.31702
RightToes  -7.55026 -0.0234342 -0.0699977
Spine  4.17703 1.51245 -0.272826
Spine1  7.19916 4.21923 -0.868374
HEad  -90.5623 -3.74149 7.70518
LeftShoulder1  -1.94126e-019 -3.10601e-018 -2.51263e-017
LeftArm  -26.1909 -42.1853 -46.5611
LeftForeArm  39.6903 -13.8731 -2.0916
LeftHand  -0.448423 -5.96855 4.90927
RightShoulder  -4.96962e-017 0 -2.36833e-017
RightArm  -38.6001 42.0442 43.3556
RightForeArm  59.0685 13.2382 1.33192
RightHand  -0.374775 2.26528 -5.8765
LeftUpLeg  -50.5249 13.8021 -2.69936
LeftLeg  75.9644 5.03467 15.3346
LeftFoot  -27.077 -1.82753 -7.41776
LeftToes  -11.5205 1.70063e-006 7.6642e-008
417
root  -26.2044 28.799 13.6282 -164.145 -10.0781 178.909
RightUpLeg  -53.0758 -19.4071 10.3365
RightLeg  71.2065 3.42013 8.02159
RightFoot  -23.6127 -0.760699 -3.14361
RightToes  -8.71363 -0.027857 -0.0804852
Spine  2.62042 1.25276 -0.687178
Spine1  4.62742 3.67029 -1.57888
HEad  -90.4242 -4.63618 7.82355
LeftShoulder1  -1.94126e-019 -3.10601e-018 -2.51263e-017
LeftArm  -28.8013 -49.237 -38.0449
LeftForeArm  39.741 -22.4935 -2.70918
LeftHand  -0.428202 -5.66685 4.81514
RightShoulder  -4.96962e-017 0 -2.36833e-017
RightArm  -37.0036 46.9606 33.8348
RightForeArm  54.4842 20.0034 1.61705
RightHand  -0.356377 2.48542 -5.45729
LeftUpLeg  -46.0932 14.4626 -2.25711
LeftLeg  70.3058 6.05171 13.6881
LeftFoot  -25.0877 -1.44493 -6.326
LeftToes  -12.983 1.70063e-006 7.6642e-008
